<svg width="184" height="46" viewBox="0 0 184 46" fill="none" xmlns="http://www.w3.org/2000/svg">
<path d="M4.40954 22.9806C4.40954 17.4413 4.40954 11.9019 4.40954 6.36253C4.40954 4.2998 5.26821 2.78583 7.22764 2.01109C7.64084 1.84646 8.11214 1.74639 8.55438 1.74639C19.6073 1.72702 30.6602 1.7238 41.7131 1.71411C42.801 1.71411 43.8469 1.79159 44.7959 2.44043C45.9064 3.20225 46.6036 4.19004 46.6973 5.54906C46.7392 6.16562 46.7554 6.78541 46.7554 7.40197C46.7554 17.9416 46.7489 28.4845 46.7392 39.0241C46.7392 39.5342 46.7457 40.0539 46.6456 40.551C46.2066 42.7493 44.6184 44.0728 42.3684 44.0728C31.209 44.0761 20.0495 44.0728 8.88687 44.047C6.17529 44.0406 4.46119 42.2974 4.45796 39.5987C4.44828 34.0594 4.45796 28.52 4.45796 22.9806C4.44182 22.9806 4.42568 22.9806 4.40631 22.9806H4.40954ZM25.421 3.74457C25.421 3.74457 25.421 3.76071 25.421 3.76716C19.985 3.76716 14.5521 3.82204 9.11607 3.73165C7.48589 3.70583 6.41417 4.81306 6.4174 6.3819C6.44968 17.3864 6.41094 28.3877 6.40449 39.3921C6.40449 41.174 7.30512 42.0747 9.09347 42.0747C20.1528 42.0682 31.209 42.0521 42.2683 42.0327C43.7823 42.0327 44.7701 40.9965 44.7669 39.4825C44.7475 28.9364 44.7314 18.3903 44.7055 7.84422C44.7055 7.14695 44.6797 6.44646 44.6281 5.7492C44.5732 4.9906 44.1826 4.37404 43.5047 4.09643C42.9301 3.86401 42.2683 3.75748 41.6421 3.75425C36.2351 3.72843 30.8281 3.74134 25.4178 3.74134L25.421 3.74457Z" fill="#1A4169"/>
<path d="M24.5139 25.292C24.5139 21.6055 24.4946 17.9223 24.5301 14.2358C24.5365 13.4449 24.2718 13.2254 23.5036 13.2383C21.1632 13.2739 18.8229 13.2319 16.4825 13.2287C16.2178 13.2287 15.9015 13.2125 15.7013 13.3416C15.4592 13.4998 15.1977 13.7936 15.1622 14.0583C15.1332 14.2681 15.4076 14.5457 15.598 14.7459C15.7175 14.8718 15.9337 14.904 16.1048 14.9815C16.5955 15.2042 17.07 15.4851 16.857 16.121C16.6471 16.7473 16.1242 16.97 15.4979 16.8376C14.5263 16.6311 13.6128 16.2824 13.2318 15.2494C12.7961 14.0551 13.0446 12.9801 13.9065 12.0407C14.5554 11.3338 15.3721 11.1143 16.305 11.1143C20.7694 11.124 25.237 11.1143 29.7015 11.1078C31.4511 11.1078 33.1975 11.0949 34.9471 11.0949C36.2964 11.0949 37.352 11.6049 37.9524 12.8671C38.7756 14.5974 37.5586 16.7569 35.654 16.8635C35.3312 16.8828 34.9019 16.5471 34.6759 16.2566C34.3757 15.8757 34.6049 15.498 34.989 15.243C35.102 15.1687 35.257 15.1139 35.3118 15.0106C35.5346 14.5877 35.725 14.1454 35.9284 13.7096C35.541 13.5482 35.1569 13.2513 34.7631 13.2416C32.3162 13.1932 29.8661 13.2351 27.4192 13.1932C26.6961 13.1802 26.5057 13.432 26.5057 14.1228C26.5186 21.4409 26.5057 28.7557 26.4928 36.0737C26.4928 36.3675 26.4734 36.6677 26.4121 36.955C26.2958 37.4908 26.0021 37.7878 25.3888 37.7426C24.7819 37.7007 24.5333 37.4327 24.5333 36.8291C24.5333 33.6301 24.5172 30.4278 24.5043 27.2288C24.5043 26.5832 24.5043 25.9376 24.5043 25.292H24.5107H24.5139Z" fill="#1A4169"/>
<path d="M28.775 26.4573C28.775 23.1485 28.7718 19.843 28.775 16.5342C28.775 15.6013 29.4529 15.1526 30.2761 15.5949C30.5311 15.7304 30.77 16.1598 30.7732 16.4568C30.8087 22.6127 30.8119 28.7718 30.8216 34.9278C30.8216 35.3829 30.941 35.8607 30.8442 36.2932C30.7377 36.7516 30.5408 37.2843 30.1986 37.5683C29.6434 38.0299 29.0365 37.7297 28.8848 37.0163C28.8234 36.729 28.8073 36.4288 28.8041 36.1351C28.7976 32.907 28.8008 29.6822 28.8008 26.4541C28.7912 26.4541 28.7782 26.4541 28.7686 26.4541L28.775 26.4573Z" fill="#1A4169"/>
<path d="M22.2866 26.5541C22.2866 29.5885 22.2866 32.6261 22.2866 35.6605C22.2866 36.0608 22.364 36.5257 22.1929 36.8485C22.0089 37.1939 21.599 37.5812 21.2439 37.6297C20.7371 37.7007 20.3562 37.3101 20.3174 36.7322C20.2981 36.4094 20.3045 36.0866 20.3045 35.7671C20.2819 29.5078 20.2529 23.2486 20.2561 16.9894C20.2561 16.5342 20.3981 16.0306 20.6338 15.6465C20.7694 15.427 21.2536 15.2656 21.5247 15.3269C21.7927 15.3882 22.1219 15.7304 22.1897 16.0048C22.3156 16.5148 22.293 17.0701 22.293 17.6059C22.2995 20.5887 22.2962 23.5682 22.2962 26.5509H22.2898L22.2866 26.5541Z" fill="#1A4169"/>
<path d="M25.3403 9.93279C22.9451 9.93279 20.5531 9.93602 18.1579 9.93279C17.1701 9.93279 16.8505 9.70037 16.8634 9.02893C16.8731 8.4737 17.4541 8.03468 18.2127 8.03791C22.3802 8.04759 26.5476 8.06374 30.7151 8.07019C31.4381 8.07019 32.1645 8.00886 32.8875 8.01209C33.1748 8.01209 33.5235 8.02823 33.7301 8.1864C34.0045 8.39623 34.3111 8.7384 34.3305 9.04507C34.3466 9.27426 33.9722 9.60998 33.6978 9.75202C33.4073 9.90051 33.0264 9.91665 32.6842 9.91988C30.2373 9.93279 27.7904 9.92633 25.3403 9.92633C25.3403 9.92633 25.3403 9.93279 25.3403 9.93602V9.93279Z" fill="#1A4169"/>
<rect width="14.2035" height="0.322807" transform="translate(62.0351 10.572)" fill="#1A4169"/>
<path d="M82.8762 7.98807H83.2219V12.4215H85.9538V12.7333H82.8762V7.98807ZM91.8172 11.3979H89.0649L88.4616 12.7333H88.0888L90.2716 7.98807H90.6173L92.8001 12.7333H92.4273L91.8172 11.3979ZM91.6884 11.1064L90.441 8.36769L89.2005 11.1064H91.6884ZM101.795 7.98807L100.189 12.7333H99.8227L98.3517 8.47616L96.8739 12.7333H96.5078L94.8944 7.98807H95.2605L96.7044 12.2588L98.189 7.98807H98.5212L99.999 12.2656L101.456 7.98807H101.795Z" fill="#1A4169"/>
<path d="M111.835 13.2688C111.348 13.2688 110.907 13.16 110.514 12.9422C110.121 12.7196 109.811 12.4166 109.584 12.0331C109.362 11.6496 109.25 11.2212 109.25 10.7477C109.25 10.2743 109.362 9.8458 109.584 9.46231C109.811 9.07881 110.121 8.77817 110.514 8.56038C110.907 8.33786 111.348 8.2266 111.835 8.2266C112.323 8.2266 112.763 8.33549 113.156 8.55328C113.549 8.77107 113.857 9.07171 114.079 9.4552C114.307 9.8387 114.42 10.2695 114.42 10.7477C114.42 11.2259 114.307 11.6567 114.079 12.0402C113.857 12.4237 113.549 12.7244 113.156 12.9422C112.763 13.16 112.323 13.2688 111.835 13.2688ZM111.835 12.9351C112.252 12.9351 112.628 12.8404 112.964 12.651C113.301 12.4616 113.566 12.2012 113.76 11.8698C113.954 11.5337 114.051 11.1596 114.051 10.7477C114.051 10.3358 113.954 9.96416 113.76 9.63275C113.566 9.2966 113.301 9.03383 112.964 8.84445C112.628 8.65507 112.252 8.56038 111.835 8.56038C111.419 8.56038 111.04 8.65507 110.699 8.84445C110.363 9.03383 110.098 9.2966 109.904 9.63275C109.71 9.96416 109.612 10.3358 109.612 10.7477C109.612 11.1596 109.71 11.5337 109.904 11.8698C110.098 12.2012 110.363 12.4616 110.699 12.651C111.04 12.8404 111.419 12.9351 111.835 12.9351ZM117.53 8.58879V10.7122H120.179V11.0389H117.53V13.2333H117.168V8.26211H120.492V8.58879H117.53ZM123.502 8.58879V10.7122H126.151V11.0389H123.502V13.2333H123.14V8.26211H126.463V8.58879H123.502ZM129.111 8.26211H129.473V13.2333H129.111V8.26211ZM134.799 13.2688C134.311 13.2688 133.871 13.16 133.478 12.9422C133.09 12.7244 132.782 12.4237 132.555 12.0402C132.332 11.6567 132.221 11.2259 132.221 10.7477C132.221 10.2695 132.332 9.8387 132.555 9.4552C132.782 9.07171 133.09 8.77107 133.478 8.55328C133.871 8.33549 134.311 8.2266 134.799 8.2266C135.159 8.2266 135.49 8.28578 135.793 8.40414C136.096 8.51777 136.354 8.68821 136.567 8.91547L136.34 9.14983C135.942 8.75686 135.433 8.56038 134.813 8.56038C134.397 8.56038 134.018 8.65507 133.677 8.84445C133.336 9.03383 133.069 9.2966 132.874 9.63275C132.68 9.96416 132.583 10.3358 132.583 10.7477C132.583 11.1596 132.68 11.5337 132.874 11.8698C133.069 12.2012 133.336 12.4616 133.677 12.651C134.018 12.8404 134.397 12.9351 134.813 12.9351C135.429 12.9351 135.938 12.7362 136.34 12.3385L136.567 12.5729C136.354 12.8001 136.094 12.9729 135.786 13.0913C135.483 13.2097 135.154 13.2688 134.799 13.2688ZM142.702 12.9067V13.2333H139.272V8.26211H142.596V8.58879H139.634V10.5489H142.283V10.8685H139.634V12.9067H142.702Z" fill="#1A4169"/>
<path d="M152.511 12.7672C152.045 12.7672 151.625 12.6633 151.25 12.4554C150.875 12.243 150.579 11.9538 150.362 11.5877C150.149 11.2216 150.043 10.8126 150.043 10.3607C150.043 9.90878 150.149 9.49978 150.362 9.13372C150.579 8.76765 150.875 8.48068 151.25 8.27279C151.625 8.06038 152.045 7.95418 152.511 7.95418C152.976 7.95418 153.396 8.05812 153.771 8.26601C154.147 8.4739 154.44 8.76087 154.653 9.12694C154.87 9.493 154.978 9.90426 154.978 10.3607C154.978 10.8172 154.87 11.2284 154.653 11.5945C154.44 11.9605 154.147 12.2475 153.771 12.4554C153.396 12.6633 152.976 12.7672 152.511 12.7672ZM152.511 12.4486C152.908 12.4486 153.268 12.3582 153.588 12.1775C153.909 11.9967 154.162 11.7481 154.348 11.4318C154.533 11.1109 154.626 10.7539 154.626 10.3607C154.626 9.96753 154.533 9.61276 154.348 9.29641C154.162 8.97554 153.909 8.72472 153.588 8.54395C153.268 8.36318 152.908 8.27279 152.511 8.27279C152.113 8.27279 151.751 8.36318 151.426 8.54395C151.105 8.72472 150.852 8.97554 150.667 9.29641C150.481 9.61276 150.389 9.96753 150.389 10.3607C150.389 10.7539 150.481 11.1109 150.667 11.4318C150.852 11.7481 151.105 11.9967 151.426 12.1775C151.751 12.3582 152.113 12.4486 152.511 12.4486ZM158.15 8.29991V10.3268H160.678V10.6386H158.15V12.7333H157.804V7.98807H160.977V8.29991H158.15Z" fill="#1A4169"/>
<rect width="14.2035" height="0.322807" transform="translate(167.481 10.572)" fill="#1A4169"/>
<path d="M125.12 25.7794C125.101 26.1216 125.078 26.3476 125.078 26.5735C125.091 29.1334 125.11 31.69 125.13 34.2499C125.139 35.5734 125.188 35.6315 126.473 36.0253C126.608 36.0673 126.721 36.1835 126.812 36.4288H122.241C122.218 36.3643 122.195 36.2997 122.173 36.2352C122.373 36.1415 122.567 35.9963 122.773 35.964C123.693 35.822 124 35.525 124 34.5985C124 31.393 123.987 28.1876 123.964 24.9853C123.958 23.9459 122.896 22.8322 121.847 22.6934C121.682 22.6708 121.524 22.6095 121.363 22.5675C121.363 22.49 121.363 22.4093 121.363 22.3319C121.763 22.3125 122.166 22.3286 122.56 22.2641C124.474 21.9574 125.804 22.7257 126.996 24.2364C129.074 26.8737 131.334 29.3723 133.519 31.9257C133.674 32.1064 133.839 32.2743 134.12 32.5842C134.12 32.0354 134.12 31.6577 134.12 31.2801C134.11 29.34 134.11 27.4032 134.091 25.4631C134.068 23.3745 134.062 23.3745 132.283 22.3996H137.015C136.877 22.5772 136.841 22.6773 136.786 22.6902C135.224 23.0227 135.208 23.0291 135.205 24.6302C135.201 28.3748 135.211 32.1161 135.211 35.8607C135.211 36.1415 135.179 36.4224 135.024 36.7775C131.512 33.3396 128.603 29.3981 125.117 25.7827L125.12 25.7794Z" fill="#1A4169"/>
<path d="M91.8967 22.3706H96.6226C96.6355 22.4222 96.6484 22.4771 96.6613 22.5288C96.5645 22.5869 96.4709 22.6773 96.3676 22.6966C95.0731 22.942 94.9117 23.1453 94.9052 24.443C94.8956 26.7317 94.8923 29.0204 94.8245 31.3059C94.8019 32.0483 94.6341 32.8005 94.4469 33.5236C93.9175 35.5702 92.3486 36.4547 90.457 36.8065C88.165 37.2326 86.0732 36.8065 84.4495 34.9471C83.5973 33.969 83.4036 32.7747 83.3778 31.5544C83.3262 29.2399 83.3358 26.9254 83.3262 24.6109C83.3197 23.1421 83.3036 23.1163 81.8574 22.7257C81.7799 22.7063 81.7121 22.6579 81.6346 22.6191C82.0607 22.2415 86.2863 22.1608 87.471 22.5223C87.0546 22.6224 86.8609 22.6837 86.6607 22.716C85.8634 22.8451 85.3953 23.3293 85.4018 24.1267C85.4276 26.7382 85.4631 29.3464 85.5309 31.958C85.5438 32.4874 85.6826 33.02 85.8344 33.5333C86.1572 34.6405 86.848 35.441 88.0004 35.7057C90.3343 36.2448 93.359 35.6864 93.6076 32.1161C93.7916 29.4659 93.6721 26.7898 93.6495 24.1267C93.6431 23.3681 93.2105 22.8806 92.4261 22.7515C92.2356 22.7192 92.0549 22.645 91.8676 22.5901C91.8773 22.5159 91.8838 22.4416 91.8935 22.3674L91.8967 22.3706Z" fill="#1A4169"/>
<path d="M170.248 22.3577C170.571 22.3287 170.897 22.277 171.22 22.277C174.1 22.2706 176.976 22.2932 179.855 22.2641C180.517 22.2576 180.878 22.4158 180.853 23.1421C180.827 23.82 180.846 24.5012 180.846 25.1791C180.769 25.1952 180.691 25.2113 180.614 25.2307C180.514 24.9854 180.385 24.7497 180.317 24.4947C180.097 23.6715 179.581 23.1647 178.735 23.1195C177.366 23.0485 175.994 23.0227 174.626 23.0421C174.435 23.0421 174.093 23.4133 174.087 23.6199C174.045 25.0176 174.087 26.4186 174.08 27.8196C174.08 28.2877 174.329 28.4168 174.745 28.4168C175.688 28.4168 176.627 28.4362 177.57 28.4523C178.512 28.4685 178.88 28.1908 179.148 27.2999C179.213 27.0836 179.339 26.8867 179.436 26.6801C179.523 26.6962 179.613 26.7156 179.7 26.7318V31.0638C179.655 31.1058 179.613 31.1478 179.568 31.1929C179.406 30.9056 179.113 30.6183 179.11 30.3278C179.097 29.4982 178.661 29.3691 177.967 29.4014C176.921 29.4466 175.869 29.4433 174.819 29.4272C174.296 29.4175 174.035 29.5434 174.051 30.1471C174.087 31.6546 174.083 33.1621 174.041 34.6696C174.019 35.4863 174.361 35.7703 175.145 35.7348C176.085 35.6929 177.031 35.6703 177.97 35.7316C179.6 35.8349 180.549 34.8988 181.343 33.6689C181.489 33.4461 181.66 33.2395 181.818 33.0233L182.099 33.1588C181.689 34.2273 181.295 35.3055 180.849 36.3611C180.798 36.4805 180.475 36.5354 180.275 36.5386C177.127 36.5548 173.98 36.5645 170.836 36.558C170.626 36.558 170.413 36.4256 170.119 36.3256C170.303 36.1513 170.352 36.0706 170.416 36.0512C171.443 35.7521 171.957 35.0591 171.959 33.9723C171.963 30.9282 171.966 27.8874 171.966 24.8433C171.966 24.4947 171.943 24.1428 171.924 23.7942C171.888 23.1228 171.533 22.7645 170.859 22.7193C170.658 22.7063 170.458 22.6644 170.258 22.6386C170.258 22.5482 170.252 22.461 170.248 22.3706V22.3577Z" fill="#1A4169"/>
<path d="M116.598 36.5096H111.317C111.507 36.2933 111.569 36.1706 111.665 36.1222C112.798 35.5444 112.815 35.5444 112.376 34.3209C112.114 33.5882 111.791 32.878 111.527 32.1452C111.368 31.703 111.12 31.519 110.629 31.5383C109.396 31.59 108.156 31.6223 106.923 31.5932C106.307 31.5771 105.984 31.8159 105.781 32.3712C105.497 33.1524 105.19 33.9303 104.851 34.6889C104.535 35.3959 104.69 35.8155 105.467 35.9898C105.713 36.0447 105.936 36.1803 106.171 36.2804C106.158 36.3482 106.149 36.4159 106.136 36.4837H102.278C102.811 35.6703 103.46 34.9181 103.841 34.0465C105.393 30.5086 106.865 26.9351 108.37 23.3778C108.495 23.0808 108.612 22.7773 108.779 22.5062C108.896 22.319 109.089 22.1834 109.251 22.0252C109.409 22.1931 109.628 22.3383 109.716 22.5385C110.829 25.1274 111.911 27.7292 113.024 30.3213C113.66 31.803 114.267 33.3009 115.019 34.7212C115.381 35.3991 116.052 35.9124 116.598 36.516V36.5096ZM111 30.8314C110.226 28.972 109.48 27.1772 108.731 25.3824C108.654 25.3921 108.576 25.405 108.499 25.4147C107.866 27.0126 107.224 28.604 106.626 30.2148C106.571 30.3633 106.817 30.8023 106.933 30.8056C108.24 30.8475 109.548 30.8314 110.997 30.8314H111Z" fill="#1A4169"/>
<path d="M72.9286 36.4644C72.7284 36.4902 72.5315 36.5322 72.3314 36.5354C70.882 36.5386 69.4293 36.5418 67.9799 36.5257C67.8314 36.5257 67.6829 36.3869 67.5345 36.3127C67.6442 36.1771 67.754 35.9253 67.8605 35.9253C69.2841 35.9253 69.1194 34.9052 69.1162 33.9949C69.113 30.7927 69.1065 27.5904 69.0936 24.3882C69.0872 22.984 69.0775 22.942 67.6474 23.055C67.0051 23.1066 66.2981 23.2487 65.7719 23.5844C65.3523 23.8491 65.1651 24.4753 64.8681 24.9369C64.7389 25.1371 64.6001 25.3275 64.4646 25.5244C64.3935 25.2952 64.2741 25.0661 64.2676 24.8336C64.2547 24.3785 64.2999 23.9201 64.329 23.4649C64.4 22.3448 64.1676 22.2705 65.6493 22.2738C68.7934 22.2867 71.9408 22.3125 75.0849 22.2964C75.7596 22.2931 76.0953 22.4578 76.0372 23.197C76.0049 23.5908 76.1243 23.9976 76.134 24.3978C76.1405 24.7755 76.0921 25.1532 76.0566 25.7246C75.7693 25.4567 75.6337 25.3759 75.5627 25.2565C75.2205 24.6722 74.9913 23.9814 74.5297 23.5198C74.2069 23.197 73.5709 23.0485 73.0803 23.055C70.9272 23.0808 71.2338 22.716 71.2306 24.853C71.2241 27.9745 71.2306 31.0961 71.2371 34.2176C71.2371 35.4895 71.2532 35.483 72.4314 35.9059C72.638 35.9802 72.8123 36.1448 72.9996 36.2675C72.977 36.332 72.9544 36.3966 72.9318 36.4611L72.9286 36.4644Z" fill="#1A4169"/>
<path d="M164.393 32.8134C164.251 33.3654 164.147 33.9303 163.96 34.4662C163.724 35.1441 163.592 36.0286 163.095 36.3901C162.633 36.7258 161.759 36.5063 161.065 36.5128C158.298 36.5418 155.528 36.5644 152.762 36.587C152.613 36.587 152.465 36.5386 152.245 36.3352C152.471 36.2255 152.684 36.0802 152.92 36.0092C153.927 35.7187 154.195 35.412 154.205 34.3564C154.234 31.18 154.257 28.0068 154.266 24.8304C154.269 23.2971 153.921 22.9226 152.407 22.7095C152.342 22.6999 152.284 22.6256 152.236 22.4255H158.246C158.256 22.4771 158.266 22.5288 158.275 22.5837C158.15 22.6418 158.027 22.7386 157.895 22.7515C156.668 22.8742 156.432 23.0905 156.429 24.2848C156.419 27.7034 156.442 31.1187 156.423 34.5372C156.419 35.3313 156.816 35.7251 157.52 35.7348C158.747 35.751 159.983 35.7413 161.2 35.596C162.162 35.483 162.795 34.7664 163.302 33.9723C163.57 33.5526 163.821 33.1265 164.083 32.7037C164.186 32.7392 164.289 32.7779 164.389 32.8134H164.393Z" fill="#1A4169"/>
</svg>
