<svg width="125" height="46" viewBox="0 0 125 46" fill="none" xmlns="http://www.w3.org/2000/svg">
<rect width="14.2035" height="0.322807" transform="translate(2.3158 10.572)" fill="#1A4169"/>
<path d="M23.1569 7.98807H23.5026V12.4215H26.2345V12.7333H23.1569V7.98807ZM32.0979 11.3979H29.3456L28.7423 12.7333H28.3695L30.5523 7.98807H30.898L33.0808 12.7333H32.708L32.0979 11.3979ZM31.9691 11.1064L30.7217 8.36769L29.4812 11.1064H31.9691ZM42.0761 7.98807L40.4695 12.7333H40.1034L38.6324 8.47616L37.1546 12.7333H36.7885L35.1751 7.98807H35.5412L36.9851 12.2588L38.4697 7.98807H38.8019L40.2797 12.2656L41.7372 7.98807H42.0761Z" fill="#1A4169"/>
<path d="M52.116 13.2688C51.6284 13.2688 51.1881 13.16 50.7951 12.9422C50.4021 12.7196 50.092 12.4166 49.8648 12.0331C49.6422 11.6496 49.531 11.2212 49.531 10.7477C49.531 10.2743 49.6422 9.8458 49.8648 9.46231C50.092 9.07881 50.4021 8.77817 50.7951 8.56038C51.1881 8.33786 51.6284 8.2266 52.116 8.2266C52.6037 8.2266 53.044 8.33549 53.4369 8.55328C53.8299 8.77107 54.1376 9.07171 54.3602 9.4552C54.5874 9.8387 54.7011 10.2695 54.7011 10.7477C54.7011 11.2259 54.5874 11.6567 54.3602 12.0402C54.1376 12.4237 53.8299 12.7244 53.4369 12.9422C53.044 13.16 52.6037 13.2688 52.116 13.2688ZM52.116 12.9351C52.5327 12.9351 52.909 12.8404 53.2452 12.651C53.5813 12.4616 53.8465 12.2012 54.0406 11.8698C54.2347 11.5337 54.3318 11.1596 54.3318 10.7477C54.3318 10.3358 54.2347 9.96416 54.0406 9.63275C53.8465 9.2966 53.5813 9.03383 53.2452 8.84445C52.909 8.65507 52.5327 8.56038 52.116 8.56038C51.6994 8.56038 51.3206 8.65507 50.9797 8.84445C50.6436 9.03383 50.3785 9.2966 50.1843 9.63275C49.9902 9.96416 49.8932 10.3358 49.8932 10.7477C49.8932 11.1596 49.9902 11.5337 50.1843 11.8698C50.3785 12.2012 50.6436 12.4616 50.9797 12.651C51.3206 12.8404 51.6994 12.9351 52.116 12.9351ZM57.8108 8.58879V10.7122H60.4598V11.0389H57.8108V13.2333H57.4487V8.26211H60.7723V8.58879H57.8108ZM63.7824 8.58879V10.7122H66.4314V11.0389H63.7824V13.2333H63.4202V8.26211H66.7439V8.58879H63.7824ZM69.3918 8.26211H69.754V13.2333H69.3918V8.26211ZM75.0798 13.2688C74.5921 13.2688 74.1518 13.16 73.7588 12.9422C73.3706 12.7244 73.0629 12.4237 72.8356 12.0402C72.6131 11.6567 72.5018 11.2259 72.5018 10.7477C72.5018 10.2695 72.6131 9.8387 72.8356 9.4552C73.0629 9.07171 73.3706 8.77107 73.7588 8.55328C74.1518 8.33549 74.5921 8.2266 75.0798 8.2266C75.4396 8.2266 75.771 8.28578 76.074 8.40414C76.377 8.51777 76.635 8.68821 76.8481 8.91547L76.6208 9.14983C76.2231 8.75686 75.7142 8.56038 75.094 8.56038C74.6773 8.56038 74.2986 8.65507 73.9577 8.84445C73.6168 9.03383 73.3493 9.2966 73.1552 9.63275C72.9611 9.96416 72.864 10.3358 72.864 10.7477C72.864 11.1596 72.9611 11.5337 73.1552 11.8698C73.3493 12.2012 73.6168 12.4616 73.9577 12.651C74.2986 12.8404 74.6773 12.9351 75.094 12.9351C75.7094 12.9351 76.2184 12.7362 76.6208 12.3385L76.8481 12.5729C76.635 12.8001 76.3746 12.9729 76.0669 13.0913C75.7639 13.2097 75.4348 13.2688 75.0798 13.2688ZM82.9827 12.9067V13.2333H79.5526V8.26211H82.8762V8.58879H79.9148V10.5489H82.5637V10.8685H79.9148V12.9067H82.9827Z" fill="#1A4169"/>
<path d="M92.7912 12.7672C92.3258 12.7672 91.9055 12.6633 91.5304 12.4554C91.1553 12.243 90.8592 11.9538 90.6423 11.5877C90.4299 11.2216 90.3237 10.8126 90.3237 10.3607C90.3237 9.90878 90.4299 9.49978 90.6423 9.13372C90.8592 8.76765 91.1553 8.48068 91.5304 8.27279C91.9055 8.06038 92.3258 7.95418 92.7912 7.95418C93.2567 7.95418 93.677 8.05812 94.0521 8.26601C94.4272 8.4739 94.721 8.76087 94.9334 9.12694C95.1503 9.493 95.2588 9.90426 95.2588 10.3607C95.2588 10.8172 95.1503 11.2284 94.9334 11.5945C94.721 11.9605 94.4272 12.2475 94.0521 12.4554C93.677 12.6633 93.2567 12.7672 92.7912 12.7672ZM92.7912 12.4486C93.1889 12.4486 93.5482 12.3582 93.8691 12.1775C94.19 11.9967 94.443 11.7481 94.6283 11.4318C94.8136 11.1109 94.9063 10.7539 94.9063 10.3607C94.9063 9.96753 94.8136 9.61276 94.6283 9.29641C94.443 8.97554 94.19 8.72472 93.8691 8.54395C93.5482 8.36318 93.1889 8.27279 92.7912 8.27279C92.3935 8.27279 92.032 8.36318 91.7066 8.54395C91.3857 8.72472 91.1327 8.97554 90.9474 9.29641C90.7621 9.61276 90.6694 9.96753 90.6694 10.3607C90.6694 10.7539 90.7621 11.1109 90.9474 11.4318C91.1327 11.7481 91.3857 11.9967 91.7066 12.1775C92.032 12.3582 92.3935 12.4486 92.7912 12.4486ZM98.4306 8.29991V10.3268H100.959V10.6386H98.4306V12.7333H98.0849V7.98807H101.257V8.29991H98.4306Z" fill="#1A4169"/>
<rect width="14.2035" height="0.322807" transform="translate(107.761 10.572)" fill="#1A4169"/>
<path d="M65.4007 25.7794C65.3814 26.1216 65.3588 26.3476 65.3588 26.5735C65.3717 29.1334 65.391 31.69 65.4104 34.2499C65.4201 35.5734 65.4685 35.6315 66.7533 36.0253C66.8889 36.0673 67.0018 36.1835 67.0922 36.4288H62.5213C62.4987 36.3643 62.4761 36.2997 62.4535 36.2352C62.6536 36.1415 62.8473 35.9963 63.0539 35.964C63.9739 35.822 64.2806 35.525 64.2806 34.5985C64.2806 31.393 64.2677 28.1876 64.2451 24.9853C64.2386 23.9459 63.1766 22.8322 62.1275 22.6934C61.9628 22.6708 61.8047 22.6095 61.6432 22.5675C61.6432 22.49 61.6432 22.4093 61.6432 22.3319C62.0435 22.3125 62.447 22.3286 62.8409 22.2641C64.7551 21.9574 66.0851 22.7257 67.2762 24.2364C69.3551 26.8737 71.6148 29.3723 73.8002 31.9257C73.9551 32.1064 74.1197 32.2743 74.4006 32.5842C74.4006 32.0354 74.4006 31.6577 74.4006 31.2801C74.3909 29.34 74.3909 27.4032 74.3715 25.4631C74.3489 23.3745 74.3425 23.3745 72.5638 22.3996H77.2962C77.1574 22.5772 77.1218 22.6773 77.067 22.6902C75.5046 23.0227 75.4884 23.0291 75.4852 24.6302C75.482 28.3748 75.4917 32.1161 75.4917 35.8607C75.4917 36.1415 75.4594 36.4224 75.3044 36.7775C71.7923 33.3396 68.8838 29.3981 65.3975 25.7827L65.4007 25.7794Z" fill="#1A4169"/>
<path d="M32.1774 22.3706H36.9033C36.9162 22.4222 36.9291 22.4771 36.942 22.5288C36.8452 22.5869 36.7516 22.6773 36.6483 22.6966C35.3538 22.942 35.1924 23.1453 35.1859 24.443C35.1763 26.7317 35.173 29.0204 35.1052 31.3059C35.0826 32.0483 34.9148 32.8005 34.7276 33.5236C34.1982 35.5702 32.6293 36.4547 30.7377 36.8065C28.4457 37.2326 26.3539 36.8065 24.7302 34.9471C23.878 33.969 23.6843 32.7747 23.6585 31.5544C23.6069 29.2399 23.6165 26.9254 23.6069 24.6109C23.6004 23.1421 23.5843 23.1163 22.1381 22.7257C22.0606 22.7063 21.9928 22.6579 21.9153 22.6191C22.3414 22.2415 26.567 22.1608 27.7517 22.5223C27.3353 22.6224 27.1416 22.6837 26.9414 22.716C26.1441 22.8451 25.676 23.3293 25.6825 24.1267C25.7083 26.7382 25.7438 29.3464 25.8116 31.958C25.8245 32.4874 25.9633 33.02 26.1151 33.5333C26.4379 34.6405 27.1287 35.441 28.2811 35.7057C30.615 36.2448 33.6397 35.6864 33.8883 32.1161C34.0723 29.4659 33.9528 26.7898 33.9302 24.1267C33.9238 23.3681 33.4912 22.8806 32.7068 22.7515C32.5163 22.7192 32.3356 22.645 32.1483 22.5901C32.158 22.5159 32.1645 22.4416 32.1742 22.3674L32.1774 22.3706Z" fill="#1A4169"/>
<path d="M110.529 22.3577C110.852 22.3287 111.178 22.277 111.501 22.277C114.38 22.2706 117.256 22.2932 120.136 22.2641C120.798 22.2576 121.159 22.4158 121.133 23.1421C121.108 23.82 121.127 24.5012 121.127 25.1791C121.049 25.1952 120.972 25.2113 120.894 25.2307C120.794 24.9854 120.665 24.7497 120.597 24.4947C120.378 23.6715 119.861 23.1647 119.016 23.1195C117.647 23.0485 116.275 23.0227 114.906 23.0421C114.716 23.0421 114.374 23.4133 114.367 23.6199C114.325 25.0176 114.367 26.4186 114.361 27.8196C114.361 28.2877 114.609 28.4168 115.026 28.4168C115.968 28.4168 116.908 28.4362 117.85 28.4523C118.793 28.4685 119.161 28.1908 119.429 27.2999C119.493 27.0836 119.619 26.8867 119.716 26.6801C119.803 26.6962 119.894 26.7156 119.981 26.7318V31.0638C119.936 31.1058 119.894 31.1478 119.849 31.1929C119.687 30.9056 119.393 30.6183 119.39 30.3278C119.377 29.4982 118.941 29.3691 118.247 29.4014C117.202 29.4466 116.149 29.4433 115.1 29.4272C114.577 29.4175 114.316 29.5434 114.332 30.1471C114.367 31.6546 114.364 33.1621 114.322 34.6696C114.3 35.4863 114.642 35.7703 115.426 35.7348C116.366 35.6929 117.311 35.6703 118.251 35.7316C119.881 35.8349 120.83 34.8988 121.624 33.6689C121.769 33.4461 121.94 33.2395 122.099 33.0233L122.379 33.1588C121.969 34.2273 121.576 35.3055 121.13 36.3611C121.078 36.4805 120.756 36.5354 120.556 36.5386C117.408 36.5548 114.261 36.5645 111.117 36.558C110.907 36.558 110.694 36.4256 110.4 36.3256C110.584 36.1513 110.632 36.0706 110.697 36.0512C111.724 35.7521 112.238 35.0591 112.24 33.9723C112.243 30.9282 112.246 27.8874 112.246 24.8433C112.246 24.4947 112.224 24.1428 112.205 23.7942C112.169 23.1228 111.814 22.7645 111.139 22.7193C110.939 22.7063 110.739 22.6644 110.539 22.6386C110.539 22.5482 110.532 22.461 110.529 22.3706V22.3577Z" fill="#1A4169"/>
<path d="M56.8786 36.5096H51.5974C51.7879 36.2933 51.8492 36.1706 51.9461 36.1222C53.0791 35.5444 53.0953 35.5444 52.6562 34.3209C52.3948 33.5882 52.072 32.878 51.8073 32.1452C51.6491 31.703 51.4005 31.519 50.9099 31.5383C49.6767 31.59 48.4372 31.6223 47.204 31.5932C46.5875 31.5771 46.2647 31.8159 46.0613 32.3712C45.7772 33.1524 45.4706 33.9303 45.1316 34.6889C44.8153 35.3959 44.9702 35.8155 45.7482 35.9898C45.9935 36.0447 46.2162 36.1803 46.4519 36.2804C46.439 36.3482 46.4293 36.4159 46.4164 36.4837H42.5588C43.0915 35.6703 43.7403 34.9181 44.1212 34.0465C45.6739 30.5086 47.1459 26.9351 48.6502 23.3778C48.7761 23.0808 48.8923 22.7773 49.0602 22.5062C49.1764 22.319 49.3701 22.1834 49.5315 22.0252C49.6896 22.1931 49.9092 22.3383 49.9963 22.5385C51.11 25.1274 52.1914 27.7292 53.3051 30.3213C53.941 31.803 54.5479 33.3009 55.3 34.7212C55.6616 35.3991 56.333 35.9124 56.8786 36.516V36.5096ZM51.2811 30.8314C50.5063 28.972 49.7607 27.1772 49.0118 25.3824C48.9343 25.3921 48.8568 25.405 48.7793 25.4147C48.1466 27.0126 47.5042 28.604 46.907 30.2148C46.8522 30.3633 47.0975 30.8023 47.2137 30.8056C48.5211 30.8475 49.8285 30.8314 51.2779 30.8314H51.2811Z" fill="#1A4169"/>
<path d="M13.2093 36.4644C13.0091 36.4902 12.8122 36.5322 12.6121 36.5354C11.1627 36.5386 9.71003 36.5418 8.26063 36.5257C8.11214 36.5257 7.96365 36.3869 7.81515 36.3127C7.92491 36.1771 8.03466 35.9253 8.14119 35.9253C9.56477 35.9253 9.40014 34.9052 9.39691 33.9949C9.39368 30.7927 9.38723 27.5904 9.37431 24.3882C9.36786 22.984 9.35817 22.942 7.92814 23.055C7.28575 23.1066 6.5788 23.2487 6.05263 23.5844C5.63298 23.8491 5.44575 24.4753 5.14877 24.9369C5.01965 25.1371 4.88084 25.3275 4.74526 25.5244C4.67424 25.2952 4.5548 25.0661 4.54835 24.8336C4.53544 24.3785 4.58063 23.9201 4.60968 23.4649C4.6807 22.3448 4.44828 22.2705 5.92996 22.2738C9.0741 22.2867 12.2215 22.3125 15.3656 22.2964C16.0403 22.2931 16.376 22.4578 16.3179 23.197C16.2856 23.5908 16.405 23.9976 16.4147 24.3978C16.4212 24.7755 16.3728 25.1532 16.3373 25.7246C16.05 25.4567 15.9144 25.3759 15.8434 25.2565C15.5012 24.6722 15.272 23.9814 14.8104 23.5198C14.4876 23.197 13.8516 23.0485 13.361 23.055C11.2079 23.0808 11.5145 22.716 11.5113 24.853C11.5048 27.9745 11.5113 31.0961 11.5178 34.2176C11.5178 35.4895 11.5339 35.483 12.7121 35.9059C12.9187 35.9802 13.093 36.1448 13.2803 36.2675C13.2577 36.332 13.2351 36.3966 13.2125 36.4611L13.2093 36.4644Z" fill="#1A4169"/>
<path d="M104.673 32.8134C104.531 33.3654 104.428 33.9303 104.241 34.4662C104.005 35.1441 103.873 36.0286 103.376 36.3901C102.914 36.7258 102.039 36.5063 101.345 36.5128C98.5788 36.5418 95.8091 36.5644 93.0427 36.587C92.8942 36.587 92.7457 36.5386 92.5262 36.3352C92.7521 36.2255 92.9652 36.0802 93.2008 36.0092C94.208 35.7187 94.4759 35.412 94.4856 34.3564C94.5147 31.18 94.5373 28.0068 94.5469 24.8304C94.5502 23.2971 94.2015 22.9226 92.6876 22.7095C92.623 22.6999 92.5649 22.6256 92.5165 22.4255H98.5271C98.5368 22.4771 98.5465 22.5288 98.5562 22.5837C98.4303 22.6418 98.3076 22.7386 98.1753 22.7515C96.9486 22.8742 96.713 23.0905 96.7097 24.2848C96.7001 27.7034 96.7227 31.1187 96.7033 34.5372C96.7001 35.3313 97.0971 35.7251 97.8008 35.7348C99.0275 35.751 100.264 35.7413 101.481 35.596C102.443 35.483 103.075 34.7664 103.582 33.9723C103.85 33.5526 104.102 33.1265 104.363 32.7037C104.467 32.7392 104.57 32.7779 104.67 32.8134H104.673Z" fill="#1A4169"/>
</svg>
