<svg width="52" height="46" viewBox="0 0 52 46" fill="none" xmlns="http://www.w3.org/2000/svg">
<rect width="51.3263" height="46" fill="white"/>
<path d="M4.40954 22.9806C4.40954 17.4413 4.40954 11.9019 4.40954 6.36253C4.40954 4.2998 5.26821 2.78583 7.22764 2.01109C7.64084 1.84646 8.11214 1.74639 8.55438 1.74639C19.6073 1.72702 30.6602 1.7238 41.7131 1.71411C42.801 1.71411 43.8469 1.79159 44.7959 2.44043C45.9064 3.20225 46.6036 4.19004 46.6973 5.54906C46.7392 6.16562 46.7554 6.78541 46.7554 7.40197C46.7554 17.9416 46.7489 28.4845 46.7392 39.0241C46.7392 39.5342 46.7457 40.0539 46.6456 40.551C46.2066 42.7493 44.6184 44.0728 42.3684 44.0728C31.209 44.0761 20.0495 44.0728 8.88687 44.047C6.17529 44.0406 4.46119 42.2974 4.45796 39.5987C4.44828 34.0594 4.45796 28.52 4.45796 22.9806C4.44182 22.9806 4.42568 22.9806 4.40631 22.9806H4.40954ZM25.421 3.74457C25.421 3.74457 25.421 3.76071 25.421 3.76716C19.985 3.76716 14.5521 3.82204 9.11607 3.73165C7.48589 3.70583 6.41417 4.81306 6.4174 6.3819C6.44968 17.3864 6.41094 28.3877 6.40449 39.3921C6.40449 41.174 7.30512 42.0747 9.09347 42.0747C20.1528 42.0682 31.209 42.0521 42.2683 42.0327C43.7823 42.0327 44.7701 40.9965 44.7669 39.4825C44.7475 28.9364 44.7314 18.3903 44.7055 7.84422C44.7055 7.14695 44.6797 6.44646 44.6281 5.7492C44.5732 4.9906 44.1826 4.37404 43.5047 4.09643C42.9301 3.86401 42.2683 3.75748 41.6421 3.75425C36.2351 3.72843 30.8281 3.74134 25.4178 3.74134L25.421 3.74457Z" fill="#1A4169"/>
<path d="M24.5139 25.292C24.5139 21.6055 24.4946 17.9223 24.5301 14.2358C24.5365 13.4449 24.2718 13.2254 23.5036 13.2383C21.1632 13.2739 18.8229 13.2319 16.4825 13.2287C16.2178 13.2287 15.9015 13.2125 15.7013 13.3416C15.4592 13.4998 15.1977 13.7936 15.1622 14.0583C15.1332 14.2681 15.4076 14.5457 15.598 14.7459C15.7175 14.8718 15.9337 14.904 16.1048 14.9815C16.5955 15.2042 17.07 15.4851 16.857 16.121C16.6471 16.7473 16.1242 16.97 15.4979 16.8376C14.5263 16.6311 13.6128 16.2824 13.2318 15.2494C12.7961 14.0551 13.0446 12.9801 13.9065 12.0407C14.5554 11.3338 15.3721 11.1143 16.305 11.1143C20.7694 11.124 25.237 11.1143 29.7015 11.1078C31.4511 11.1078 33.1975 11.0949 34.9471 11.0949C36.2964 11.0949 37.352 11.6049 37.9524 12.8671C38.7756 14.5974 37.5586 16.7569 35.654 16.8635C35.3312 16.8828 34.9019 16.5471 34.6759 16.2566C34.3757 15.8757 34.6049 15.498 34.989 15.243C35.102 15.1687 35.257 15.1139 35.3118 15.0106C35.5346 14.5877 35.725 14.1454 35.9284 13.7096C35.541 13.5482 35.1569 13.2513 34.7631 13.2416C32.3162 13.1932 29.8661 13.2351 27.4192 13.1932C26.6961 13.1802 26.5057 13.432 26.5057 14.1228C26.5186 21.4409 26.5057 28.7557 26.4928 36.0737C26.4928 36.3675 26.4734 36.6677 26.4121 36.955C26.2958 37.4908 26.0021 37.7878 25.3888 37.7426C24.7819 37.7007 24.5333 37.4327 24.5333 36.8291C24.5333 33.6301 24.5172 30.4278 24.5043 27.2288C24.5043 26.5832 24.5043 25.9376 24.5043 25.292H24.5107H24.5139Z" fill="#1A4169"/>
<path d="M28.775 26.4573C28.775 23.1485 28.7718 19.843 28.775 16.5342C28.775 15.6013 29.4529 15.1526 30.2761 15.5949C30.5311 15.7304 30.77 16.1598 30.7732 16.4568C30.8087 22.6127 30.8119 28.7718 30.8216 34.9278C30.8216 35.3829 30.941 35.8607 30.8442 36.2932C30.7377 36.7516 30.5408 37.2843 30.1986 37.5683C29.6434 38.0299 29.0365 37.7297 28.8848 37.0163C28.8234 36.729 28.8073 36.4288 28.8041 36.1351C28.7976 32.907 28.8008 29.6822 28.8008 26.4541C28.7912 26.4541 28.7782 26.4541 28.7686 26.4541L28.775 26.4573Z" fill="#1A4169"/>
<path d="M22.2866 26.5541C22.2866 29.5885 22.2866 32.6261 22.2866 35.6605C22.2866 36.0608 22.364 36.5257 22.1929 36.8485C22.0089 37.1939 21.599 37.5812 21.2439 37.6297C20.7371 37.7007 20.3562 37.3101 20.3174 36.7322C20.2981 36.4094 20.3045 36.0866 20.3045 35.7671C20.2819 29.5078 20.2529 23.2486 20.2561 16.9894C20.2561 16.5342 20.3981 16.0306 20.6338 15.6465C20.7694 15.427 21.2536 15.2656 21.5247 15.3269C21.7927 15.3882 22.1219 15.7304 22.1897 16.0048C22.3156 16.5148 22.293 17.0701 22.293 17.6059C22.2995 20.5887 22.2962 23.5682 22.2962 26.5509H22.2898L22.2866 26.5541Z" fill="#1A4169"/>
<path d="M25.3403 9.93279C22.9451 9.93279 20.5531 9.93602 18.1579 9.93279C17.1701 9.93279 16.8505 9.70037 16.8634 9.02893C16.8731 8.4737 17.4541 8.03468 18.2127 8.03791C22.3802 8.04759 26.5476 8.06374 30.7151 8.07019C31.4381 8.07019 32.1645 8.00886 32.8875 8.01209C33.1748 8.01209 33.5235 8.02823 33.7301 8.1864C34.0045 8.39623 34.3111 8.7384 34.3305 9.04507C34.3466 9.27426 33.9722 9.60998 33.6978 9.75202C33.4073 9.90051 33.0264 9.91665 32.6842 9.91988C30.2373 9.93279 27.7904 9.92633 25.3403 9.92633C25.3403 9.92633 25.3403 9.93279 25.3403 9.93602V9.93279Z" fill="#1A4169"/>
</svg>
