<svg width="120" height="21" viewBox="0 0 120 21" fill="none" xmlns="http://www.w3.org/2000/svg">
<path fill-rule="evenodd" clip-rule="evenodd" d="M12.1734 7.66753L9.52153 0.968213L6.86965 7.66753L0 8.25086L5.22574 12.9716L3.62982 20.0318L9.50952 16.2491L15.3892 20.0318L13.7933 12.9716L19.019 8.25086L12.1494 7.66753H12.1674H12.1734ZM36.3402 7.60138L33.6223 0.733678L30.9045 7.60138L23.8668 8.19674L29.2245 13.0378L27.5926 20.2784L33.6163 16.4055L39.64 20.2784L38.0081 13.0378L43.3658 8.19674L36.3282 7.60138H36.3402ZM61.1009 7.52921L58.3231 0.493127L55.5452 7.52921L48.3456 8.14261L53.8353 13.1039L52.1674 20.5189L58.3411 16.5498L64.5148 20.5189L62.8349 13.1039L68.3246 8.14261L61.1249 7.52921H61.1129H61.1009ZM86.4617 7.45705L83.6178 0.258591L80.774 7.45705L73.3943 8.08849L79.01 13.1701L77.2941 20.7595L83.6178 16.7002L89.9415 20.7595L88.2256 13.1701L93.8413 8.08849L86.4617 7.45705ZM120 8.02234L112.434 7.37886L109.513 0L106.591 7.37886L99.037 8.02234L104.791 13.2242L103.039 21L109.507 16.8385L115.974 21L114.222 13.2242L119.976 8.02234H119.988H120Z" fill="#FFAD31"/>
</svg>
