<svg width="20" height="19" viewBox="0 0 20 19" fill="none" xmlns="http://www.w3.org/2000/svg">
<path d="M12.8507 12.1095L12.3219 11.5777H12.3219L12.8507 12.1095ZM13.3062 11.6567L13.835 12.1885H13.835L13.3062 11.6567ZM15.7228 11.3399L15.3646 11.9988L15.7228 11.3399ZM17.6333 12.3785L17.2751 13.0374L17.6333 12.3785ZM18.1717 15.6335L18.7005 16.1653L18.1717 15.6335ZM16.7511 17.0459L16.2223 16.5141L16.7511 17.0459ZM15.4263 17.7156L15.4959 18.4624H15.4959L15.4263 17.7156ZM5.56536 13.4771L6.09418 12.9452L5.56536 13.4771ZM0.752888 4.49611L0.00409579 4.53866L0.00409585 4.53866L0.752888 4.49611ZM7.22752 5.94788L7.75634 6.47972H7.75634L7.22752 5.94788ZM7.38424 3.29398L7.98464 2.84451L7.38424 3.29398ZM6.12326 1.60958L5.52286 2.05905V2.05905L6.12326 1.60958ZM3.01145 1.32533L3.54027 1.85717H3.54027L3.01145 1.32533ZM1.44185 2.88602L0.913031 2.35418H0.913031L1.44185 2.88602ZM8.81312 10.2477L9.34194 9.7159L8.81312 10.2477ZM12.8507 12.1095L13.3795 12.6414L13.835 12.1885L13.3062 11.6567L12.7773 11.1248L12.3219 11.5777L12.8507 12.1095ZM15.7228 11.3399L15.3646 11.9988L17.2751 13.0374L17.6333 12.3785L17.9915 11.7196L16.081 10.681L15.7228 11.3399ZM18.1717 15.6335L17.6429 15.1016L16.2223 16.5141L16.7511 17.0459L17.2799 17.5778L18.7005 16.1653L18.1717 15.6335ZM15.4263 17.7156L15.3567 16.9689C13.9068 17.104 10.1556 16.9836 6.09418 12.9452L5.56536 13.4771L5.03654 14.0089C9.46865 18.4158 13.6869 18.631 15.4959 18.4624L15.4263 17.7156ZM5.56536 13.4771L6.09418 12.9452C2.2228 9.09583 1.58151 5.85815 1.50168 4.45355L0.752888 4.49611L0.00409585 4.53866C0.104565 6.30649 0.898626 9.89448 5.03654 14.0089L5.56536 13.4771ZM6.9407 6.23307L7.46952 6.76491L7.75634 6.47972L7.22752 5.94788L6.6987 5.41605L6.41189 5.70123L6.9407 6.23307ZM7.38424 3.29398L7.98464 2.84451L6.72365 1.16011L6.12326 1.60958L5.52286 2.05905L6.78385 3.74345L7.38424 3.29398ZM3.01145 1.32533L2.48263 0.79349L0.913031 2.35418L1.44185 2.88602L1.97067 3.41786L3.54027 1.85717L3.01145 1.32533ZM6.9407 6.23307C6.41189 5.70123 6.41117 5.70194 6.41045 5.70266C6.41021 5.7029 6.40949 5.70363 6.409 5.70412C6.40802 5.7051 6.40702 5.70611 6.40601 5.70714C6.40398 5.70921 6.40188 5.71136 6.39972 5.7136C6.39539 5.71809 6.39081 5.72295 6.38599 5.72819C6.37634 5.73866 6.36575 5.75064 6.35441 5.76417C6.33174 5.79122 6.30605 5.82453 6.27905 5.86438C6.22492 5.94427 6.16594 6.0499 6.11589 6.18274C6.01376 6.45379 5.95901 6.81109 6.02765 7.25355C6.16189 8.11883 6.75782 9.26176 8.2843 10.7796L8.81312 10.2477L9.34194 9.7159C7.91342 8.29549 7.57314 7.43109 7.50992 7.02359C7.47983 6.82966 7.51104 6.73421 7.51956 6.71161C7.52483 6.69763 7.52733 6.6962 7.52087 6.70575C7.5177 6.71042 7.51238 6.71773 7.50412 6.72758C7.49999 6.73251 7.49512 6.73809 7.48939 6.74431C7.48653 6.74742 7.48345 6.75069 7.48014 6.75412C7.47849 6.75584 7.47678 6.75759 7.47501 6.75939C7.47413 6.76029 7.47323 6.7612 7.47231 6.76212C7.47185 6.76258 7.47116 6.76328 7.47093 6.76351C7.47023 6.76421 7.46952 6.76491 6.9407 6.23307ZM8.81312 10.2477L8.2843 10.7796C9.8113 12.2979 10.9596 12.8888 11.8263 13.0218C12.2692 13.0897 12.6263 13.0355 12.8972 12.9346C13.03 12.8851 13.1358 12.8268 13.2158 12.7732C13.2558 12.7464 13.2892 12.7209 13.3163 12.6984C13.3299 12.6872 13.3419 12.6767 13.3524 12.6671C13.3577 12.6623 13.3626 12.6578 13.3671 12.6535C13.3694 12.6513 13.3715 12.6492 13.3736 12.6472C13.3746 12.6462 13.3756 12.6452 13.3766 12.6442C13.3771 12.6437 13.3779 12.643 13.3781 12.6428C13.3788 12.6421 13.3795 12.6414 12.8507 12.1095C12.3219 11.5777 12.3226 11.577 12.3233 11.5763C12.3235 11.5761 12.3242 11.5754 12.3247 11.5749C12.3256 11.574 12.3265 11.5731 12.3274 11.5722C12.3293 11.5705 12.331 11.5688 12.3327 11.5671C12.3362 11.5638 12.3395 11.5608 12.3426 11.5579C12.3488 11.5523 12.3544 11.5474 12.3594 11.5434C12.3692 11.5352 12.3765 11.53 12.381 11.5269C12.3903 11.5207 12.3884 11.5235 12.3736 11.529C12.3491 11.5381 12.251 11.5694 12.0538 11.5391C11.6405 11.4757 10.77 11.1358 9.34194 9.7159L8.81312 10.2477ZM6.12326 1.60958L6.72365 1.16011C5.70434 -0.201476 3.69996 -0.41693 2.48263 0.79349L3.01145 1.32533L3.54027 1.85717C4.07195 1.3285 5.01623 1.38231 5.52286 2.05905L6.12326 1.60958ZM0.752888 4.49611L1.50168 4.45355C1.48201 4.10744 1.64075 3.7459 1.97067 3.41785L1.44185 2.88602L0.913031 2.35418C0.375711 2.88845 -0.0467058 3.64475 0.00409579 4.53866L0.752888 4.49611ZM16.7511 17.0459L16.2223 16.5141C15.9475 16.7874 15.6529 16.9413 15.3567 16.9689L15.4263 17.7156L15.4959 18.4624C16.2305 18.3939 16.8324 18.0228 17.2799 17.5778L16.7511 17.0459ZM7.22752 5.94788L7.75634 6.47972C8.74084 5.5008 8.81403 3.9524 7.98464 2.84451L7.38424 3.29398L6.78385 3.74345C7.18734 4.28243 7.1273 4.98988 6.6987 5.41605L7.22752 5.94788ZM17.6333 12.3785L17.2751 13.0374C18.0929 13.482 18.2203 14.5274 17.6429 15.1016L18.1717 15.6335L18.7005 16.1653C20.0408 14.8326 19.6275 12.6089 17.9915 11.7196L17.6333 12.3785ZM13.3062 11.6567L13.835 12.1885C14.219 11.8067 14.8371 11.7121 15.3646 11.9988L15.7228 11.3399L16.081 10.681C14.9974 10.0919 13.6526 10.2546 12.7773 11.1248L13.3062 11.6567Z" fill="#071C32"/>
</svg>
